<svg width="407" height="315" viewBox="0 0 407 315" fill="none" xmlns="http://www.w3.org/2000/svg">
<g clip-path="url(#clip0_5_21)">
<path d="M370.674 98.7411C374.355 97.1343 366.889 96.199 358.418 95.8914C349.947 95.5839 339.699 95.6009 334.286 94.7262C329.05 93.8802 329.436 92.376 328.995 91.0131C328.555 89.6502 326.542 88.2528 318.372 87.9498C308.192 87.5723 291.404 89.0255 283.719 88.153C276.547 87.3389 280.81 84.7851 270.353 84.6873C264.381 84.6315 256.688 85.4735 250.044 85.6767C243.805 85.8674 239.19 85.4724 235.952 84.9413C232.713 84.4102 230.457 83.7369 226.812 83.2677C217.243 82.0361 198.521 82.4501 181.81 84.0286C165.1 85.6071 150.776 88.194 142.697 90.7561C134.619 93.3183 132.387 95.8409 134.269 97.9801C135.471 99.3462 138.545 100.623 146.004 101.172C159.955 102.199 184.794 100.432 199.21 101.366C207.245 101.887 210.81 103.177 217.859 103.884C225.433 104.642 236.52 104.683 247.413 104.665C270.094 104.627 293.355 104.394 317.075 103.966C326.982 103.787 337.362 103.555 347.904 102.704C358.446 101.852 369.199 100.209 371.423 98.6694" fill="#5FA6BD"/>
<path d="M402.876 231.253C398.844 239.405 392.478 246.529 385.162 252.025C373.947 260.453 360.597 265.517 347.236 269.791C271.775 293.935 189.348 295.8 112.874 275.096C91.7198 269.37 70.4583 261.634 54.0043 247.145C48.7377 242.505 44.1442 237.152 40.3569 231.241C62.2561 219.194 88.7987 214.653 114.127 215.207C150.437 216.002 185.9 225.703 221.87 230.721C264.231 236.623 307.242 236.03 349.424 228.963C364.057 226.505 379.201 223.291 393.524 227.182C396.817 228.092 399.965 229.462 402.876 231.253Z" fill="#5FA6BD"/>
<path d="M383.257 285.448C382.647 287.161 381.648 288.71 380.34 289.971C378.369 291.912 375.893 293.252 373.395 294.437C359.176 301.151 343.333 303.644 327.742 301.622C323.459 301.058 319.102 300.104 315.508 297.705C314.358 296.936 313.32 296.011 312.425 294.955C316.389 292.027 321.456 290.444 326.419 289.887C333.534 289.09 340.717 290.055 347.877 290.092C356.308 290.134 364.696 288.89 372.753 286.403C375.548 285.539 378.423 284.513 381.323 284.898C381.99 284.989 382.641 285.174 383.257 285.448Z" fill="#F2F2F2"/>
<path d="M142.897 291.318C141.757 292.735 140.305 293.868 138.654 294.628C136.155 295.811 133.376 296.26 130.627 296.556C114.993 298.209 99.2132 295.341 85.1575 288.293C81.2987 286.348 77.4987 284.012 74.8942 280.562C74.0607 279.457 73.3853 278.241 72.8878 276.949C77.5935 275.491 82.8989 275.666 87.7684 276.777C94.7491 278.369 101.214 281.648 107.962 284.043C115.909 286.861 124.239 288.451 132.665 288.758C135.588 288.863 138.639 288.843 141.252 290.162C141.852 290.468 142.405 290.857 142.897 291.318Z" fill="#E0F7FE"/>
<path d="M250.858 303.543C250.026 305.16 248.83 306.562 247.366 307.638C245.155 309.3 242.523 310.298 239.889 311.14C224.905 315.902 208.872 316.265 193.688 312.186C189.518 311.058 185.326 309.533 182.083 306.676C181.044 305.762 180.139 304.706 179.392 303.541C183.709 301.166 188.942 300.271 193.935 300.38C201.093 300.537 208.084 302.449 215.175 303.438C223.526 304.602 232.005 304.485 240.32 303.092C243.205 302.607 246.191 301.974 249.014 302.741C249.663 302.92 250.284 303.19 250.858 303.543Z" fill="#E5EDF6"/>
<path d="M267.708 207.73L256.933 202.972V198.881L260.773 198.86C261.369 198.856 261.949 198.666 262.432 198.316C262.914 197.966 263.275 197.473 263.463 196.908L266.161 188.808C266.304 188.378 266.343 187.921 266.274 187.474C266.206 187.027 266.033 186.602 265.769 186.235C265.504 185.869 265.157 185.57 264.755 185.364C264.352 185.157 263.907 185.05 263.455 185.05H256.933V181.244H265.12C265.766 181.244 266.392 181.024 266.897 180.622C267.402 180.22 267.755 179.658 267.9 179.028L269.758 170.94C269.854 170.521 269.854 170.087 269.76 169.668C269.665 169.25 269.477 168.858 269.209 168.522C268.942 168.186 268.603 167.915 268.217 167.729C267.83 167.542 267.407 167.445 266.978 167.445H256.933V166.494C256.933 165.989 256.733 165.505 256.377 165.148C256.02 164.791 255.536 164.591 255.032 164.591C254.528 164.591 254.044 164.791 253.687 165.148C253.331 165.505 253.131 165.989 253.131 166.494V167.445H185.788V166.494C185.788 165.989 185.588 165.505 185.231 165.148C184.875 164.791 184.391 164.591 183.887 164.591C183.382 164.591 182.899 164.791 182.542 165.148C182.186 165.505 181.985 165.989 181.985 166.494V167.445H174C173.572 167.445 173.148 167.542 172.762 167.729C172.376 167.915 172.036 168.186 171.769 168.522C171.502 168.858 171.314 169.25 171.219 169.668C171.124 170.087 171.125 170.521 171.221 170.94L173.079 179.028C173.223 179.658 173.577 180.22 174.082 180.622C174.587 181.024 175.213 181.244 175.858 181.244H181.985V185.05H177.524C177.074 185.05 176.631 185.156 176.23 185.36C175.83 185.564 175.483 185.86 175.218 186.224C174.954 186.588 174.779 187.009 174.707 187.453C174.636 187.897 174.671 188.352 174.809 188.78L177.562 197.333C177.748 197.911 178.113 198.414 178.604 198.77C179.095 199.126 179.687 199.316 180.293 199.312L181.985 199.303V202.972L173.27 207.73C172.896 207.73 172.525 207.804 172.179 207.947C171.833 208.091 171.518 208.301 171.254 208.566C170.989 208.831 170.779 209.146 170.635 209.492C170.492 209.838 170.418 210.21 170.418 210.585C170.418 211.342 170.719 212.068 171.254 212.603C171.789 213.139 172.514 213.439 173.27 213.439H181.985V234.375C181.985 234.879 182.186 235.363 182.542 235.72C182.899 236.077 183.382 236.278 183.887 236.278C184.391 236.278 184.875 236.077 185.231 235.72C185.588 235.363 185.788 234.879 185.788 234.375V213.439H253.131V234.375C253.131 234.879 253.331 235.363 253.687 235.72C254.044 236.077 254.528 236.278 255.032 236.278C255.536 236.278 256.02 236.077 256.377 235.72C256.733 235.363 256.933 234.879 256.933 234.375V213.439H267.708C268.465 213.439 269.19 213.139 269.725 212.603C270.26 212.068 270.56 211.342 270.56 210.585C270.56 210.21 270.487 209.838 270.343 209.492C270.2 209.146 269.99 208.831 269.725 208.566C269.46 208.301 269.146 208.09 268.8 207.947C268.454 207.804 268.083 207.73 267.708 207.73ZM185.788 181.244H253.131V185.05H185.788L185.788 181.244ZM185.788 202.972V199.281L253.131 198.903V202.972H185.788Z" fill="#E5EDF7"/>
<path d="M153.44 142.278C151.989 139.589 151.786 136.065 153.568 133.583C154.449 136.787 156.434 139.576 159.172 141.456C160.23 142.177 161.482 142.869 161.844 144.099C162.035 144.882 161.917 145.709 161.516 146.409C161.116 147.1 160.629 147.736 160.067 148.303L160.016 148.495C157.389 146.937 154.891 144.966 153.44 142.278Z" fill="#CCCCCC"/>
<path d="M215.3 147.628C213.849 144.94 213.647 141.416 215.428 138.934C216.309 142.138 218.294 144.927 221.032 146.807C222.09 147.528 223.342 148.22 223.704 149.45C223.895 150.233 223.778 151.06 223.377 151.76C222.976 152.45 222.489 153.087 221.927 153.654L221.876 153.846C219.25 152.288 216.751 150.317 215.3 147.628Z" fill="#CCCCCC"/>
<path d="M321.03 246.487C318.117 245.572 315.517 243.187 315.065 240.165C317.929 241.847 321.294 242.461 324.567 241.899C325.828 241.677 327.208 241.299 328.323 241.928C329.006 242.357 329.498 243.032 329.697 243.813C329.892 244.588 329.986 245.384 329.978 246.182L330.075 246.356C327.107 247.072 323.943 247.403 321.03 246.487Z" fill="#CCCCCC"/>
<path d="M326.376 253.749C323.463 252.834 320.863 250.449 320.411 247.427C323.275 249.109 326.64 249.723 329.913 249.161C331.174 248.939 332.553 248.561 333.669 249.19C334.352 249.619 334.844 250.294 335.043 251.075C335.238 251.849 335.332 252.646 335.324 253.444L335.421 253.618C332.453 254.334 329.289 254.665 326.376 253.749Z" fill="#CCCCCC"/>
<path d="M309.574 249.927C306.661 249.012 304.061 246.627 303.61 243.605C306.473 245.287 309.839 245.901 313.111 245.339C314.372 245.117 315.752 244.739 316.868 245.368C317.55 245.797 318.042 246.472 318.242 247.253C318.436 248.027 318.53 248.824 318.522 249.622L318.619 249.796C315.651 250.512 312.487 250.842 309.574 249.927Z" fill="#CCCCCC"/>
<path d="M322.557 241.519C319.644 240.604 317.044 238.219 316.593 235.196C319.456 236.878 322.822 237.493 326.094 236.93C327.355 236.709 328.735 236.331 329.851 236.959C330.533 237.388 331.025 238.063 331.225 238.844C331.419 239.619 331.513 240.415 331.505 241.213L331.602 241.387C328.634 242.103 325.47 242.434 322.557 241.519Z" fill="#CCCCCC"/>
<path d="M113.423 246.332C110.615 245.133 108.262 242.503 108.111 239.451C110.794 241.408 114.083 242.351 117.395 242.114C118.672 242.018 120.082 241.779 121.13 242.514C121.767 243.008 122.19 243.728 122.312 244.526C122.429 245.315 122.444 246.117 122.358 246.911L122.437 247.093C119.413 247.513 116.232 247.53 113.423 246.332Z" fill="#CCCCCC"/>
<path d="M133.202 208.399C131.751 205.711 131.548 202.187 133.33 199.705C134.211 202.909 136.196 205.698 138.933 207.578C139.992 208.299 141.244 208.991 141.606 210.221C141.797 211.004 141.679 211.831 141.278 212.531C140.878 213.221 140.391 213.858 139.829 214.425L139.778 214.617C137.151 213.059 134.653 211.088 133.202 208.399Z" fill="#CCCCCC"/>
<path d="M135.366 233.064C132.483 232.059 129.958 229.594 129.6 226.559C132.41 228.33 135.755 229.048 139.043 228.587C140.311 228.405 141.702 228.07 142.797 228.733C143.466 229.183 143.937 229.873 144.112 230.66C144.282 231.44 144.352 232.239 144.319 233.037L144.411 233.213C141.422 233.837 138.249 234.069 135.366 233.064Z" fill="#CCCCCC"/>
<path d="M140.712 223.509C137.829 222.504 135.304 220.039 134.946 217.004C137.756 218.774 141.101 219.493 144.389 219.032C145.657 218.85 147.047 218.515 148.143 219.178C148.812 219.628 149.283 220.318 149.458 221.105C149.628 221.885 149.698 222.684 149.665 223.481L149.757 223.658C146.768 224.281 143.595 224.514 140.712 223.509Z" fill="#CCCCCC"/>
<path d="M130.02 226.949C127.137 225.944 124.612 223.479 124.255 220.444C127.064 222.214 130.409 222.933 133.697 222.472C134.965 222.29 136.356 221.955 137.451 222.618C138.12 223.068 138.591 223.758 138.766 224.545C138.936 225.325 139.006 226.123 138.973 226.921L139.065 227.098C136.076 227.721 132.903 227.954 130.02 226.949Z" fill="#CCCCCC"/>
<path d="M22.8171 131.71C22.7274 131.71 22.6379 131.709 22.5479 131.708C17.8253 131.638 13.2764 129.914 9.69274 126.835C6.10905 123.755 3.71728 119.516 2.93353 114.854C2.14978 110.192 3.02365 105.402 5.40311 101.319C7.78257 97.2348 11.517 94.1152 15.9568 92.5024C16.5472 92.2936 17.0575 91.9053 17.4164 91.3918C17.7753 90.8783 17.9648 90.2653 17.9584 89.6387L17.9582 89.5668C17.958 87.9525 18.1507 86.344 18.5323 84.7756C18.6618 84.271 18.6555 83.741 18.5138 83.2397C18.3721 82.7384 18.1002 82.2836 17.7257 81.9217C14.339 78.7338 11.6523 74.8751 9.83657 70.5913C8.02084 66.3075 7.11581 61.6922 7.17908 57.0393C7.44272 38.8745 22.4293 24.0964 40.5867 24.0964L40.7495 24.0968C45.2649 24.1022 49.7315 25.0317 53.8748 26.8284C58.0181 28.625 61.7506 31.2508 64.8429 34.5443C66.3968 36.186 68.2674 37.495 70.3415 38.3922C72.4155 39.2894 74.6498 39.7561 76.9093 39.764L76.9738 39.9549L76.9732 39.7638L77.1058 39.7634C83.4293 39.7821 89.6191 41.5876 94.9627 44.9722C100.306 48.3567 104.586 53.1827 107.311 58.8947C107.458 59.2097 107.691 59.4768 107.984 59.6654C108.276 59.8539 108.615 59.9562 108.963 59.9607L109.193 59.9653C115.162 60.1068 120.984 61.8468 126.053 65.0042C131.123 68.1617 135.254 72.6214 138.017 77.919C140.781 83.2167 142.075 89.1588 141.766 95.1271C141.457 101.095 139.556 106.872 136.26 111.855C132.964 116.838 128.394 120.846 123.026 123.462C117.657 126.078 111.687 127.206 105.735 126.729C99.7832 126.252 94.0681 124.187 89.1841 120.749C84.3001 117.311 80.4258 112.626 77.9644 107.182C77.8894 107.02 77.7694 106.883 77.6188 106.787C77.4682 106.692 77.2934 106.642 77.1151 106.643C74.8189 106.644 72.5286 106.41 70.28 105.944C62.1034 104.226 53.5988 105.025 45.8839 108.234C45.6244 108.342 45.3622 108.444 45.0973 108.542C44.4971 108.759 43.9778 109.156 43.6093 109.678C43.2408 110.199 43.0408 110.822 43.0361 111.461V111.5C43.036 116.86 40.9091 122 37.1231 125.79C33.3372 129.58 28.2022 131.709 22.8477 131.71H22.8171V131.71Z" fill="#5FA6BD"/>
<path d="M74.4086 233.754C73.247 233.757 72.1021 233.477 71.074 232.935C70.0459 232.394 69.1659 231.609 68.5108 230.649C67.7895 229.61 67.3535 228.4 67.2465 227.139C67.1395 225.879 67.3652 224.612 67.9011 223.467C71.9293 214.708 73.3908 204.956 72.2447 194.481C69.4281 168.733 43.7401 128.545 43.4809 128.142L31.6877 113.122C29.0022 109.701 30.3211 106.03 32.6833 104.067C35.0073 102.134 38.7959 101.523 41.621 104.747C42.4384 105.611 43.0694 106.634 43.4747 107.752C44.272 102.509 47.3806 78.8156 41.886 59.3095C40.1672 53.207 43.9867 48.987 48.2628 47.6486C52.4612 46.3348 57.9016 47.6066 59.928 53.5028C61.1015 56.917 61.4759 60.782 61.0411 64.9903C59.9247 75.7909 59.0815 85.8574 58.5346 94.9103C58.4722 95.9449 58.7404 96.9725 59.3004 97.8442C59.8605 98.716 60.6832 99.3867 61.6496 99.7592C62.6159 100.132 63.6756 100.186 64.6752 99.9158C65.6747 99.6451 66.5622 99.0629 67.2091 98.2536L76.4354 86.7176C81.9859 79.7778 90.3345 79.5052 96.1459 82.3137C101.413 84.8587 106.83 91.0427 104.765 100.095C104.271 102.263 103.38 103.99 102.119 105.229C101.855 105.488 101.587 105.747 101.316 106.007C95.1732 111.877 90.9991 119.509 89.3683 127.852C87.7375 136.194 88.7301 144.838 92.2096 152.592C100.454 170.814 105.91 186.444 108.426 199.048C111.883 216.363 109.602 227.412 101.649 231.89L101.576 231.912L74.9166 233.736L74.9047 233.562L74.9166 233.736C74.7466 233.748 74.5769 233.754 74.4086 233.754Z" fill="#33495E"/>
<path d="M20.162 107.613C20.0725 107.613 19.9833 107.613 19.8935 107.612C15.1708 107.542 10.622 105.818 7.03822 102.738C3.45448 99.6589 1.06269 95.4194 0.278932 90.7574C-0.504823 86.0954 0.369062 81.3059 2.74856 77.2221C5.12806 73.1383 8.86257 70.0187 13.3024 68.406C13.8927 68.1972 14.4031 67.8089 14.762 67.2954C15.1209 66.7819 15.3104 66.1689 15.304 65.5423L15.3038 65.4704C15.3034 63.8562 15.4962 62.2477 15.8779 60.6794C16.0074 60.1747 16.001 59.6447 15.8593 59.1434C15.7175 58.642 15.4456 58.1872 15.0711 57.8253C11.6844 54.6373 8.99781 50.7787 7.18211 46.4948C5.36641 42.211 4.4614 37.5958 4.52466 32.9428C4.78831 14.7781 19.7749 0 37.9323 0L38.0949 0.000381998C42.6103 0.00574959 47.0769 0.935315 51.2203 2.73195C55.3636 4.52858 59.0962 7.15433 62.1885 10.4478C63.7424 12.0895 65.613 13.3986 67.687 14.2958C69.761 15.193 71.9953 15.6596 74.2547 15.6675L74.3192 15.8584L74.3186 15.6673L74.4514 15.667C80.7749 15.6858 86.9646 17.4913 92.3082 20.8759C97.6518 24.2604 101.932 29.0863 104.656 34.7982C104.804 35.1133 105.037 35.3803 105.329 35.5689C105.621 35.7574 105.961 35.8598 106.308 35.8643L106.538 35.8689C112.507 36.0103 118.329 37.7503 123.399 40.9078C128.468 44.0653 132.599 48.5249 135.363 53.8226C138.126 59.1203 139.421 65.0624 139.112 71.0307C138.802 76.9989 136.901 82.7753 133.605 87.7585C130.309 92.7418 125.739 96.7499 120.371 99.3658C115.003 101.982 109.032 103.11 103.08 102.633C97.1287 102.156 91.4135 100.091 86.5295 96.6528C81.6455 93.215 77.7712 88.53 75.3098 83.0852C75.2348 82.9233 75.1148 82.7864 74.9642 82.6909C74.8136 82.5954 74.6388 82.5452 74.4605 82.5464C72.1643 82.5473 69.874 82.3131 67.6254 81.8475C59.4488 80.1293 50.9442 80.9277 43.2295 84.1379C42.9698 84.2456 42.7075 84.3481 42.4427 84.4453C41.8425 84.663 41.3233 85.0594 40.9548 85.5813C40.5863 86.1031 40.3862 86.7253 40.3815 87.3643V87.4037C40.3814 92.7632 38.2545 97.9032 34.4685 101.693C30.6826 105.483 25.5476 107.613 20.1931 107.613H20.162Z" fill="#5FA6BD"/>
<path d="M104.964 52.5001C105.026 52.4906 105.087 52.4815 105.15 52.4727C108.431 52.0154 111.768 52.7238 114.581 54.4747C117.394 56.2256 119.505 58.9082 120.546 62.0558C121.587 65.2033 121.493 68.6166 120.28 71.7019C119.067 74.7872 116.812 77.3493 113.907 78.9423C113.52 79.1502 113.207 79.474 113.014 79.8683C112.82 80.2627 112.754 80.7078 112.825 81.1415L112.833 81.1913C113.006 82.3101 113.044 83.4456 112.947 84.5736C112.911 84.9372 112.972 85.3039 113.124 85.6363C113.276 85.9686 113.513 86.2547 113.811 86.4655C117.687 89.1224 120.676 92.8842 122.389 97.2626C124.102 101.641 124.461 106.434 123.419 111.019C122.376 115.604 119.981 119.769 116.544 122.975C113.106 126.18 108.785 128.277 104.142 128.993L104.03 129.01C100.899 129.49 97.7039 129.324 94.6401 128.522C91.5762 127.72 88.7085 126.3 86.2133 124.348C84.9608 123.376 83.5244 122.669 81.991 122.269C80.4576 121.869 78.859 121.785 77.2921 122.021L77.227 121.896L77.2478 122.028L77.1558 122.042C72.7707 122.706 68.2875 122.117 64.2221 120.343C60.1567 118.569 56.6743 115.682 54.1758 112.015C54.0399 111.812 53.8497 111.652 53.6271 111.552C53.4045 111.453 53.1584 111.418 52.917 111.452L52.757 111.474C48.6045 112.015 44.3831 111.432 40.532 109.786C36.6809 108.14 33.3409 105.491 30.8595 102.114C28.3781 98.7382 26.8461 94.758 26.4227 90.5881C25.9994 86.4181 26.7003 82.2108 28.4525 78.404C30.2046 74.5971 32.944 71.3298 36.3856 68.9421C39.8272 66.5543 43.8452 65.1334 48.0215 64.8271C52.1978 64.5208 56.3798 65.3404 60.1324 67.2006C63.8849 69.0607 67.0708 71.8935 69.3586 75.404C69.4279 75.5082 69.5257 75.5903 69.6403 75.6404C69.7549 75.6905 69.8814 75.7065 70.0049 75.6866C71.5964 75.4402 73.2089 75.3574 74.8172 75.4395C80.6683 75.7554 86.4779 74.2917 91.4823 71.2409C91.6508 71.1384 91.8217 71.0394 91.9948 70.9436C92.3876 70.7285 92.7052 70.3981 92.9048 69.997C93.1045 69.5958 93.1767 69.1431 93.1117 68.6997L93.1075 68.6724C92.535 64.9575 93.4602 61.1671 95.6795 58.135C97.8988 55.1028 101.231 53.0771 104.942 52.5035L104.964 52.5001Z" fill="#5FA6BD"/>
<path d="M347.424 117.962C342.027 117.962 333.578 132.501 333.492 132.651C325.707 142.596 317.702 167.776 313.621 181.903C313.157 183.507 313.031 185.189 313.25 186.844C313.47 188.499 314.03 190.09 314.896 191.517C315.761 192.943 316.914 194.175 318.279 195.133C319.645 196.09 321.195 196.754 322.831 197.081C331.36 198.786 338.612 201.208 344.384 204.282C358.048 211.56 374.252 204.68 375.893 203.946L370.515 176.131C364.543 156.278 352.117 118.59 347.816 117.989C347.686 117.971 347.555 117.962 347.424 117.962Z" fill="#2F2E41"/>
<path opacity="0.1" d="M370.701 176.085C370.701 176.085 353.402 118.577 347.843 117.8C342.283 117.023 335.601 132.714 335.601 132.714C332.095 147.219 323.344 167.168 316.99 180.641C316.207 182.3 315.807 184.113 315.818 185.948C315.83 187.782 316.254 189.591 317.057 191.239C317.861 192.888 319.025 194.335 320.463 195.473C321.9 196.611 323.575 197.41 325.363 197.813C331.41 199.17 338.304 201.262 344.294 204.451C358.887 212.223 376.109 204.058 376.109 204.058L370.701 176.085Z" fill="black"/>
<path d="M359.686 179.943L331.811 176.503L337.538 151.277L359.686 152.042V179.943Z" fill="#9E616A"/>
<path d="M344.168 287.572L338.581 286.665L339.419 264.665L347.664 266.003L344.168 287.572Z" fill="#9E616A"/>
<path d="M372.01 275.909L366.957 278.46L353.574 259.021L361.031 255.255L372.01 275.909Z" fill="#9E616A"/>
<path d="M356.063 268.84L332.797 209.459C324.47 186.693 331.91 171.002 331.986 170.847L332.024 170.77L332.104 170.741C333.059 174.463 354.722 174.21 359.686 168.477C362.583 170.913 366.439 176.649 367.266 183.503C368.129 190.857 367.474 198.31 365.342 205.4L356.178 236.496L367.516 262.062L356.063 268.84Z" fill="#2F2E41"/>
<path d="M344.843 232.007L336.443 274.645L347.631 276.757L354.67 239.85L344.843 232.007Z" fill="#2F2E41"/>
<path d="M346.015 280.433L345.332 280.391L338.837 280.001L337.92 279.948V283.422L330.222 288.742C329.842 289.005 329.555 289.382 329.405 289.82C329.254 290.257 329.247 290.731 329.385 291.173C329.523 291.614 329.798 292 330.17 292.274C330.543 292.547 330.993 292.695 331.455 292.694H341.093L342.754 289.262L343.403 292.694H347.035L346.015 280.433Z" fill="#2F2E41"/>
<path d="M379.236 284.182L371.733 274.436L371.347 274.654L366.299 277.505L364.673 278.422L366.551 281.339L362.969 289.988C362.793 290.415 362.758 290.888 362.868 291.336C362.979 291.785 363.23 292.187 363.584 292.483C363.939 292.779 364.379 292.954 364.84 292.982C365.3 293.01 365.758 292.891 366.147 292.641L374.246 287.408L373.78 283.621L376.185 286.155L379.236 284.182Z" fill="#2F2E41"/>
<path d="M357.874 112.664C365.545 112.664 371.763 106.44 371.763 98.7626C371.763 91.0851 365.545 84.8612 357.874 84.8612C350.204 84.8612 343.986 91.0851 343.986 98.7626C343.986 106.44 350.204 112.664 357.874 112.664Z" fill="#2F2E41"/>
<path d="M287.576 157.171C286.295 156.648 285.25 155.672 284.639 154.429C284.029 153.186 283.895 151.762 284.263 150.427C284.631 149.092 285.475 147.938 286.637 147.185C287.798 146.431 289.195 146.13 290.563 146.339L308.382 142.909L315.067 150.86L295.224 153.188C295.047 153.991 294.696 154.746 294.195 155.399C293.695 156.052 293.058 156.587 292.329 156.966C291.6 157.346 290.796 157.561 289.975 157.597C289.154 157.632 288.335 157.487 287.576 157.171H287.576Z" fill="#9E616A"/>
<path d="M342.948 139.401L320.832 152.979L300.881 153.571L294.895 144.857L316.643 140.855L346.594 117.972L342.948 139.401Z" fill="#2F2E41"/>
<path d="M339.067 130.929C333.666 136.335 338.681 142.127 338.681 142.127L332.509 156.029L356.813 162.593L365.307 124.604L359.52 118.426C358.289 118.385 358.716 114.523 357.733 114.486C354.146 114.348 352.116 114.234 350.967 114.15C349.469 114.039 347.94 117.8 347.94 117.8C345.912 119.786 339.067 130.929 339.067 130.929Z" fill="#6C63FF"/>
<path d="M381.929 189.441C380.636 188.366 379.447 187.172 378.377 185.875C376.408 183.516 374.645 180.992 373.108 178.33C371.028 174.754 369.288 170.991 367.911 167.089C367.907 167.082 367.907 167.074 367.903 167.066C367.472 165.847 367.072 164.592 366.704 163.302C366.701 163.287 366.696 163.273 366.689 163.26C366.068 161.079 365.566 158.867 365.184 156.632C363.642 147.585 366.635 139.345 369.419 134.024C369.657 133.576 369.86 133.109 370.026 132.629C370.785 130.528 370.844 128.237 370.195 126.099C369.545 123.962 368.221 122.092 366.422 120.77L366.288 120.67C365.187 119.856 363.936 119.268 362.608 118.94C361.279 118.612 359.898 118.551 358.546 118.76C357.193 118.969 355.895 119.444 354.727 120.157C353.559 120.871 352.543 121.809 351.739 122.918C351.729 122.928 351.72 122.94 351.713 122.952C346.955 129.587 342.472 139.394 344.408 151.514C344.869 154.368 345.632 157.165 346.684 159.858C347.004 160.687 347.356 161.524 347.737 162.369C349.299 165.809 350.832 169.037 352.335 172.054C353.652 174.703 354.94 177.188 356.199 179.511C360.274 187.04 364.001 192.854 367.162 196.924C370.82 201.626 373.723 203.999 375.536 203.999C375.722 204.001 375.906 203.973 376.082 203.915C376.09 203.911 376.094 203.911 376.101 203.907C377.514 203.43 379.252 201.958 380.699 200.089C382.039 198.35 383.128 196.267 383.471 194.314C383.727 192.858 383.666 190.832 381.929 189.441Z" fill="#2F2E41"/>
<path d="M358.589 111.298C363.543 108.588 365.364 102.37 362.656 97.411C359.947 92.452 353.735 90.6295 348.781 93.3403C343.827 96.0512 342.006 102.269 344.714 107.228C347.423 112.187 353.634 114.009 358.589 111.298Z" fill="#9E616A"/>
<path d="M340.453 100.781H355.215L355.367 98.6598L356.123 100.781H358.397L358.697 96.5767L360.197 100.781H364.595V100.573C364.592 97.6458 363.429 94.8394 361.361 92.7695C359.293 90.6997 356.489 89.5354 353.565 89.5321H351.483C348.559 89.5354 345.755 90.6997 343.687 92.7695C341.619 94.8394 340.456 97.6457 340.453 100.573V100.781Z" fill="#2F2E41"/>
<path d="M388.012 196.643C387.558 197.952 386.641 199.048 385.433 199.724C384.225 200.401 382.812 200.61 381.46 200.313C380.109 200.016 378.913 199.233 378.1 198.112C377.286 196.991 376.912 195.611 377.047 194.233L372.681 176.604L380.258 169.5L383.633 189.211C384.444 189.345 385.215 189.656 385.893 190.121C386.571 190.587 387.139 191.195 387.556 191.904C387.974 192.612 388.231 193.404 388.31 194.223C388.389 195.042 388.287 195.868 388.012 196.643V196.643Z" fill="#9E616A"/>
<path d="M368.324 126.666L384.252 182.391L375.624 187.51L350.623 127.412L368.324 126.666Z" fill="#2F2E41"/>
<path d="M396.299 106.928C393.255 104.814 391.361 101.401 390.059 97.9287C388.756 94.4564 387.936 90.8076 386.461 87.4056C384.674 83.2978 381.977 79.6509 378.574 76.7409C376.394 74.8812 373.859 73.3108 371.033 72.8503C368.206 72.3897 365.056 73.2118 363.249 75.4349C361.441 77.658 361.445 81.3365 363.634 83.1842C362.98 82.4958 361.713 82.6664 361.146 83.4275C360.884 83.8256 360.756 84.2966 360.78 84.7725C360.804 85.2483 360.978 85.7041 361.279 86.0739C361.497 86.3477 361.766 86.5776 362.07 86.7512C362.752 88.2787 363.92 89.5372 365.392 90.3309C367.181 91.2137 369.566 91.0294 370.92 89.564C372.274 88.0986 372.081 85.3618 370.336 84.3951C373.05 83.872 375.859 85.4497 377.433 87.7245C379.007 89.9993 379.537 92.8413 379.666 95.6053C379.796 98.3694 379.565 101.146 379.798 103.903C380.031 106.66 380.785 109.482 382.604 111.566C385.585 114.98 390.826 115.617 395.163 114.307C399.5 112.996 403.152 110.098 406.685 107.261C403.746 109.519 399.344 109.042 396.299 106.928Z" fill="#2F2E41"/>
<path d="M276.365 149.554C274.396 151.008 273.895 153.668 274.572 155.925C274.924 157.159 275.618 158.267 276.574 159.121C277.531 159.975 278.709 160.54 279.974 160.75C282.809 161.285 285.844 160.172 288.05 158.409C290.536 156.422 291.978 153.524 293.41 150.756C295.349 147.005 297.477 143.344 299.526 139.652C301.811 135.535 304.095 131.417 306.378 127.298C311.511 118.033 316.619 108.756 321.703 99.4645C326.781 90.1627 331.801 80.8295 336.763 71.4648C340.784 63.834 344.766 56.1757 348.492 48.3947C348.858 47.63 349.22 46.8638 349.58 46.0959C349.685 45.8117 349.675 45.4973 349.552 45.2203C349.429 44.9432 349.201 44.7258 348.92 44.6146C348.635 44.5119 348.323 44.5233 348.047 44.6465C347.771 44.7697 347.553 44.9951 347.44 45.2753C344.05 52.5221 340.382 59.6396 336.678 66.7293C332.034 75.6164 327.307 84.4589 322.496 93.2568C317.523 102.405 312.512 111.532 307.464 120.639C303.095 128.539 298.717 136.435 294.331 144.326C293.266 146.247 292.186 148.16 291.178 150.112C289.876 152.634 288.521 155.275 286.159 156.968C284.152 158.406 281.308 159.167 278.984 158.056C277.254 157.228 276.371 155.16 276.608 153.372C276.656 152.965 276.789 152.573 276.998 152.22C277.207 151.867 277.487 151.562 277.821 151.324C279.01 150.447 277.549 148.679 276.365 149.554V149.554Z" fill="#2F2E41"/>
<path d="M400.283 100.754L400.148 100.738C394.944 100.098 389.788 99.3266 384.823 98.4443C381.29 97.8163 377.84 97.133 374.569 96.4134C371.811 95.8097 369.085 95.1633 366.466 94.4918C363.546 93.7475 360.649 92.946 357.854 92.1094C356.688 91.7657 355.501 91.4019 354.327 91.0284C352.151 90.337 350.054 89.6337 348.093 88.9385C346.191 88.2728 344.273 87.5623 342.392 86.8273C342.352 86.8153 342.312 86.8009 342.274 86.7841C338.463 85.3024 334.721 83.7035 331.156 82.033C330.465 81.7122 329.778 81.3865 329.096 81.0561C308.53 71.1082 291.311 57.6111 277.919 40.9396L277.843 40.845L277.896 40.736C285.055 26.039 297.447 14.5541 312.638 8.53946C327.828 2.52479 344.716 2.41543 359.983 8.23288C361.864 8.95205 363.716 9.75671 365.487 10.6246L370.256 12.9584C372.833 14.2191 375.326 15.6463 377.718 17.231C390.952 26.0222 400.543 39.328 404.706 54.6709C408.868 70.0138 407.318 86.348 400.343 100.632L400.283 100.754Z" fill="#6C63FF"/>
<path d="M287.459 50.113C305.232 36.9261 324.612 26.0599 345.13 17.777C350.886 15.4521 356.72 13.3356 362.632 11.4275C363.331 11.2015 362.847 10.1617 362.152 10.3861C341.004 17.2173 320.814 26.722 302.071 38.67C296.834 42.0045 291.721 45.5237 286.731 49.2276C286.138 49.668 286.868 50.5517 287.459 50.113Z" fill="#3F3D56"/>
<path d="M374.058 15.1936C373.99 15.2909 373.955 15.4071 373.958 15.5255C373.961 15.6439 374.002 15.7582 374.074 15.8519C377.31 20.3421 380.053 25.1677 382.257 30.2453C384.462 35.3228 386.143 40.6124 387.274 46.0319C388.417 51.4517 389.017 56.9721 389.066 62.5111C389.117 68.0491 388.611 73.5782 387.556 79.0148C386.653 83.6638 385.326 88.2201 383.592 92.6264C383.301 93.3661 382.999 94.1009 382.683 94.8306C382.411 95.4607 382.131 96.0863 381.841 96.7071C381.531 97.3796 382.604 97.7835 382.914 97.1186C383.293 96.2953 383.661 95.4671 384.007 94.6291C385.824 90.2913 387.249 85.7994 388.264 81.2072C389.475 75.7299 390.124 70.1431 390.201 64.5338C390.282 58.9164 389.809 53.3047 388.788 47.7805C387.77 42.2623 386.196 36.8614 384.092 31.6602C381.982 26.4386 379.316 21.4597 376.141 16.8094C375.997 16.5957 375.849 16.3816 375.701 16.1713L374.058 15.1936Z" fill="#3F3D56"/>
<path d="M317.208 74.1324L335.589 51.9627L353.971 29.7929L364.318 17.3133C364.79 16.744 363.858 16.0763 363.389 16.6416L345.008 38.8113L326.626 60.981L316.279 73.4606C315.807 74.03 316.739 74.6976 317.208 74.1324H317.208Z" fill="#3F3D56"/>
<path d="M357.433 91.245L362.658 64.0969L367.865 37.0424L370.802 21.7833C370.941 21.0591 369.8 20.9529 369.661 21.6725L364.437 48.8205L359.23 75.875L356.293 91.1341C356.154 91.8583 357.295 91.9645 357.433 91.245Z" fill="#3F3D56"/>
<path d="M377.612 17.3902C376.498 19.3806 374.734 20.9269 372.616 21.7696C370.498 22.6122 368.155 22.6998 365.98 22.0177C363.806 21.3356 361.931 19.9254 360.672 18.0237C359.414 16.122 358.847 13.8446 359.067 11.574C359.171 10.4798 359.457 9.41085 359.915 8.41162C361.761 9.1172 363.59 9.91208 365.403 10.7963L370.172 13.13C372.742 14.3866 375.227 15.8096 377.612 17.3902Z" fill="#3F3D56"/>
<path d="M145.617 23.6359C147.398 29.8683 150.066 35.8121 153.538 41.2846C154.526 42.8399 155.577 44.3518 156.693 45.8205C157.132 46.401 158.128 45.8303 157.682 45.2417C153.807 40.1363 150.69 34.4975 148.426 28.4999C147.787 26.8009 147.219 25.078 146.721 23.331C146.677 23.1891 146.579 23.07 146.449 22.9988C146.318 22.9276 146.165 22.9099 146.022 22.9494C145.879 22.989 145.756 23.0826 145.681 23.2107C145.605 23.3388 145.582 23.4912 145.617 23.6359H145.617Z" fill="#F2F2F2"/>
<path d="M179.542 48.4764L186.501 60.5927C186.58 60.7185 186.705 60.8086 186.85 60.8438C186.994 60.8791 187.147 60.8568 187.275 60.7818C187.403 60.7067 187.497 60.5847 187.537 60.4414C187.578 60.2982 187.561 60.145 187.49 60.014L180.531 47.8976C180.452 47.7719 180.327 47.6818 180.183 47.6466C180.038 47.6113 179.886 47.6336 179.757 47.7086C179.629 47.7837 179.535 47.9057 179.495 48.049C179.455 48.1922 179.472 48.3454 179.542 48.4764Z" fill="#F2F2F2"/>
<path d="M195.068 31.1593L200.736 43.2755C201.048 43.9432 202.036 43.3617 201.725 42.6968L196.058 30.5805C195.745 29.9128 194.757 30.4943 195.068 31.1593Z" fill="#F2F2F2"/>
<path d="M251.39 39.3064C253.171 45.5388 255.839 51.4826 259.311 56.9551C260.299 58.5104 261.35 60.0223 262.466 61.491C262.905 62.0715 263.901 61.5008 263.455 60.9123C259.58 55.8069 256.463 50.168 254.199 44.1704C253.56 42.4714 252.992 40.7485 252.494 39.0015C252.45 38.8596 252.352 38.7405 252.222 38.6693C252.091 38.5981 251.938 38.5804 251.795 38.6199C251.652 38.6595 251.529 38.7531 251.454 38.8812C251.378 39.0093 251.355 39.1617 251.39 39.3064H251.39Z" fill="#F2F2F2"/>
<path d="M285.315 64.1469L292.274 76.2632C292.353 76.389 292.478 76.4791 292.623 76.5143C292.767 76.5496 292.92 76.5273 293.048 76.4523C293.176 76.3772 293.27 76.2552 293.311 76.1119C293.351 75.9687 293.334 75.8154 293.263 75.6845L286.304 63.5681C286.225 63.4424 286.1 63.3523 285.956 63.3171C285.811 63.2818 285.659 63.3041 285.531 63.3791C285.402 63.4542 285.308 63.5762 285.268 63.7195C285.228 63.8627 285.245 64.0159 285.315 64.1469Z" fill="#F2F2F2"/>
<path d="M300.842 46.8298L306.509 58.946C306.821 59.6137 307.809 59.0322 307.498 58.3673L301.831 46.251C301.518 45.5833 300.531 46.1648 300.842 46.8298Z" fill="#F2F2F2"/>
<path d="M234.206 113.455C235.988 119.687 238.656 125.631 242.127 131.103C243.116 132.659 244.167 134.171 245.282 135.639C245.722 136.22 246.717 135.649 246.271 135.061C242.397 129.955 239.279 124.316 237.016 118.319C236.377 116.62 235.809 114.897 235.311 113.15C235.266 113.008 235.169 112.889 235.038 112.818C234.908 112.746 234.755 112.729 234.612 112.768C234.468 112.808 234.346 112.901 234.27 113.029C234.195 113.158 234.172 113.31 234.206 113.455H234.206Z" fill="#F2F2F2"/>
<path d="M268.132 138.295L275.091 150.412C275.17 150.537 275.295 150.627 275.439 150.663C275.584 150.698 275.736 150.676 275.865 150.601C275.993 150.525 276.087 150.403 276.127 150.26C276.167 150.117 276.15 149.964 276.08 149.833L269.121 137.716C269.042 137.591 268.917 137.501 268.772 137.465C268.628 137.43 268.476 137.452 268.347 137.527C268.219 137.602 268.125 137.724 268.085 137.868C268.044 138.011 268.061 138.164 268.132 138.295Z" fill="#F2F2F2"/>
<path d="M283.658 120.978L289.325 133.094C289.638 133.762 290.626 133.181 290.315 132.516L284.647 120.399C284.335 119.732 283.347 120.313 283.658 120.978Z" fill="#F2F2F2"/>
<path d="M118.505 144.413C120.287 150.646 122.954 156.59 126.426 162.062C127.414 163.617 128.466 165.129 129.581 166.598C130.021 167.179 131.016 166.608 130.57 166.019C126.696 160.914 123.578 155.275 121.314 149.277C120.676 147.579 120.108 145.856 119.61 144.109C119.565 143.967 119.467 143.848 119.337 143.776C119.207 143.705 119.054 143.688 118.91 143.727C118.767 143.767 118.645 143.86 118.569 143.988C118.494 144.116 118.471 144.269 118.505 144.413H118.505Z" fill="#F2F2F2"/>
<path d="M152.431 169.254L159.389 181.37C159.469 181.496 159.594 181.586 159.738 181.621C159.883 181.657 160.035 181.634 160.163 181.559C160.292 181.484 160.386 181.362 160.426 181.219C160.466 181.076 160.449 180.923 160.379 180.792L153.42 168.675C153.34 168.549 153.215 168.459 153.071 168.424C152.927 168.389 152.774 168.411 152.646 168.486C152.518 168.561 152.423 168.683 152.383 168.827C152.343 168.97 152.36 169.123 152.431 169.254Z" fill="#F2F2F2"/>
<path d="M167.957 151.937L173.624 164.053C173.937 164.721 174.924 164.139 174.613 163.474L168.946 151.358C168.634 150.69 167.646 151.272 167.957 151.937Z" fill="#F2F2F2"/>
<path d="M265.136 183.016C266.918 189.249 269.586 195.193 273.057 200.665C274.045 202.22 275.097 203.732 276.212 205.201C276.652 205.782 277.647 205.211 277.201 204.622C273.327 199.517 270.209 193.878 267.946 187.88C267.307 186.181 266.739 184.458 266.241 182.712C266.196 182.57 266.099 182.451 265.968 182.379C265.838 182.308 265.685 182.29 265.542 182.33C265.398 182.369 265.276 182.463 265.2 182.591C265.125 182.719 265.102 182.872 265.136 183.016H265.136Z" fill="#F2F2F2"/>
<path d="M299.062 207.857L306.021 219.973C306.1 220.099 306.225 220.189 306.369 220.224C306.514 220.26 306.666 220.237 306.795 220.162C306.923 220.087 307.017 219.965 307.057 219.822C307.097 219.679 307.08 219.525 307.01 219.395L300.051 207.278C299.972 207.152 299.847 207.062 299.702 207.027C299.558 206.992 299.405 207.014 299.277 207.089C299.149 207.164 299.055 207.286 299.015 207.429C298.974 207.573 298.991 207.726 299.062 207.857Z" fill="#F2F2F2"/>
<path d="M314.588 190.54L320.256 202.656C320.568 203.324 321.556 202.742 321.245 202.077L315.577 189.961C315.265 189.293 314.277 189.875 314.588 190.54Z" fill="#F2F2F2"/>
<path d="M328.142 142.12C329.924 148.353 332.591 154.296 336.063 159.769C337.051 161.324 338.103 162.836 339.218 164.305C339.658 164.885 340.653 164.315 340.207 163.726C336.332 158.621 333.215 152.982 330.951 146.984C330.313 145.285 329.744 143.562 329.247 141.815C329.202 141.673 329.104 141.554 328.974 141.483C328.843 141.412 328.69 141.394 328.547 141.434C328.404 141.473 328.282 141.567 328.206 141.695C328.13 141.823 328.107 141.976 328.142 142.12H328.142Z" fill="#F2F2F2"/>
<path d="M362.068 166.961L369.026 179.077C369.106 179.203 369.231 179.293 369.375 179.328C369.52 179.363 369.672 179.341 369.8 179.266C369.929 179.191 370.023 179.069 370.063 178.926C370.103 178.783 370.086 178.629 370.015 178.498L363.057 166.382C362.977 166.256 362.852 166.166 362.708 166.131C362.564 166.096 362.411 166.118 362.283 166.193C362.154 166.268 362.06 166.39 362.02 166.533C361.98 166.677 361.997 166.83 362.068 166.961Z" fill="#F2F2F2"/>
<path d="M377.594 149.644L383.261 161.76C383.573 162.428 384.561 161.846 384.25 161.181L378.583 149.065C378.271 148.397 377.283 148.979 377.594 149.644Z" fill="#F2F2F2"/>
<path d="M342.652 55.7413C344.434 61.9738 347.102 67.9175 350.573 73.3901C351.562 74.9453 352.613 76.4573 353.728 77.9259C354.168 78.5065 355.163 77.9358 354.718 77.3472C350.843 72.2418 347.725 66.6029 345.462 60.6053C344.823 58.9064 344.255 57.1834 343.757 55.4365C343.713 55.2945 343.615 55.1754 343.484 55.1042C343.354 55.033 343.201 55.0153 343.058 55.0549C342.914 55.0944 342.792 55.1881 342.716 55.3161C342.641 55.4442 342.618 55.5966 342.652 55.7413H342.652Z" fill="#F2F2F2"/>
<path d="M376.578 80.5818L383.537 92.6982C383.616 92.824 383.741 92.914 383.885 92.9493C384.03 92.9845 384.182 92.9623 384.311 92.8872C384.439 92.8121 384.533 92.6901 384.573 92.5469C384.613 92.4036 384.596 92.2504 384.526 92.1194L377.567 80.0031C377.488 79.8773 377.363 79.7873 377.218 79.752C377.074 79.7167 376.922 79.739 376.793 79.8141C376.665 79.8891 376.571 80.0112 376.531 80.1544C376.49 80.2976 376.507 80.4509 376.578 80.5818Z" fill="#F2F2F2"/>
<path d="M392.104 63.2647L397.771 75.3809C398.084 76.0487 399.072 75.4672 398.761 74.8022L393.093 62.686C392.781 62.0182 391.793 62.5997 392.104 63.2647Z" fill="#F2F2F2"/>
<path d="M33.352 25.1647C35.1337 31.3972 37.8014 37.3409 41.273 42.8135C42.2612 44.3687 43.3128 45.8807 44.428 47.3493C44.8677 47.9298 45.8629 47.3592 45.4171 46.7706C41.5425 41.6652 38.425 36.0263 36.1612 30.0287C35.5227 28.3298 34.9545 26.6068 34.4566 24.8599C34.4122 24.7179 34.3144 24.5988 34.184 24.5276C34.0535 24.4564 33.9005 24.4387 33.7572 24.4783C33.614 24.5178 33.4916 24.6115 33.416 24.7395C33.3404 24.8676 33.3175 25.02 33.352 25.1647H33.352Z" fill="#F2F2F2"/>
<path d="M67.2776 50.0052L74.2363 62.1216C74.3157 62.2474 74.4407 62.3374 74.5851 62.3726C74.7295 62.4079 74.8819 62.3857 75.0103 62.3106C75.1386 62.2355 75.2327 62.1135 75.2729 61.9702C75.313 61.827 75.296 61.6738 75.2255 61.5428L68.2668 49.4264C68.1874 49.3007 68.0624 49.2106 67.918 49.1754C67.7736 49.1401 67.6212 49.1624 67.4929 49.2374C67.3646 49.3125 67.2704 49.4345 67.2302 49.5778C67.1901 49.721 67.2071 49.8742 67.2776 50.0052Z" fill="#F2F2F2"/>
<path d="M82.8039 32.6881L88.4711 44.8043C88.7835 45.4721 89.7713 44.8906 89.4603 44.2256L83.7931 32.1094C83.4807 31.4416 82.4929 32.0231 82.8039 32.6881Z" fill="#F2F2F2"/>
<path d="M57.4087 73.705C59.1904 79.9375 61.8581 85.8812 65.3297 91.3538C66.3179 92.9091 67.3695 94.421 68.4847 95.8896C68.9244 96.4702 69.9196 95.8995 69.4738 95.3109C65.5992 90.2055 62.4817 84.5667 60.2179 78.5691C59.5794 76.8701 59.0112 75.1472 58.5133 73.4002C58.4689 73.2583 58.3711 73.1392 58.2407 73.068C58.1102 72.9968 57.9572 72.9791 57.8139 73.0186C57.6707 73.0582 57.5483 73.1518 57.4727 73.2799C57.3971 73.4079 57.3742 73.5604 57.4087 73.705H57.4087Z" fill="#F2F2F2"/>
<path d="M91.3344 98.5455L98.293 110.662C98.3724 110.788 98.4974 110.878 98.6418 110.913C98.7862 110.948 98.9387 110.926 99.067 110.851C99.1953 110.776 99.2895 110.654 99.3296 110.511C99.3698 110.367 99.3528 110.214 99.2822 110.083L92.3235 97.9668C92.2442 97.841 92.1191 97.751 91.9747 97.7158C91.8303 97.6805 91.6779 97.7027 91.5496 97.7778C91.4213 97.8529 91.3271 97.9749 91.2869 98.1181C91.2468 98.2614 91.2638 98.4146 91.3344 98.5455Z" fill="#F2F2F2"/>
<path d="M106.861 81.2285L112.528 93.3447C112.84 94.0125 113.828 93.431 113.517 92.766L107.85 80.6498C107.537 79.982 106.55 80.5635 106.861 81.2285Z" fill="#F2F2F2"/>
<path d="M2.0401 161.231C3.82183 167.463 6.48946 173.407 9.96113 178.879C10.9493 180.435 12.001 181.947 13.1161 183.415C13.5558 183.996 14.5511 183.425 14.1052 182.837C10.2306 177.731 7.11313 172.092 4.84935 166.095C4.21078 164.396 3.64257 162.673 3.14473 160.926C3.1003 160.784 3.00254 160.665 2.87206 160.594C2.74158 160.522 2.58858 160.505 2.44532 160.544C2.30206 160.584 2.17974 160.677 2.10414 160.805C2.02854 160.933 2.00558 161.086 2.04009 161.231H2.0401Z" fill="#F2F2F2"/>
<path d="M35.9658 186.071L42.9244 198.187C43.0038 198.313 43.1288 198.403 43.2732 198.439C43.4176 198.474 43.5701 198.452 43.6984 198.376C43.8267 198.301 43.9209 198.179 43.961 198.036C44.0012 197.893 43.9842 197.74 43.9136 197.609L36.9549 185.492C36.8756 185.367 36.7505 185.277 36.6061 185.241C36.4617 185.206 36.3093 185.228 36.181 185.303C36.0527 185.378 35.9585 185.5 35.9184 185.644C35.8782 185.787 35.8952 185.94 35.9658 186.071Z" fill="#F2F2F2"/>
<path d="M51.492 168.754L57.1592 180.87C57.4716 181.538 58.4594 180.956 58.1484 180.291L52.4812 168.175C52.1688 167.508 51.181 168.089 51.492 168.754Z" fill="#F2F2F2"/>
<path d="M155.545 92.8154C157.326 99.0479 159.994 104.992 163.466 110.464C164.454 112.019 165.506 113.531 166.621 115C167.06 115.581 168.056 115.01 167.61 114.421C163.735 109.316 160.618 103.677 158.354 97.6794C157.715 95.9805 157.147 94.2575 156.649 92.5106C156.605 92.3687 156.507 92.2495 156.377 92.1784C156.246 92.1072 156.093 92.0895 155.95 92.129C155.807 92.1685 155.684 92.2622 155.609 92.3903C155.533 92.5183 155.51 92.6707 155.545 92.8154H155.545Z" fill="#F2F2F2"/>
<path d="M189.47 117.656L196.429 129.772C196.508 129.898 196.633 129.988 196.778 130.023C196.922 130.059 197.075 130.036 197.203 129.961C197.331 129.886 197.425 129.764 197.466 129.621C197.506 129.478 197.489 129.325 197.418 129.194L190.46 117.077C190.38 116.951 190.255 116.861 190.111 116.826C189.966 116.791 189.814 116.813 189.686 116.888C189.557 116.963 189.463 117.085 189.423 117.229C189.383 117.372 189.4 117.525 189.47 117.656Z" fill="#F2F2F2"/>
<path d="M204.997 100.339L210.664 112.455C210.976 113.123 211.964 112.541 211.653 111.876L205.986 99.7601C205.673 99.0924 204.686 99.6739 204.997 100.339Z" fill="#F2F2F2"/>
<path d="M81.2934 169.302C85.6243 168.376 87.7773 161.266 86.1022 153.422C84.4272 145.578 79.5584 139.97 75.2275 140.896C70.8966 141.823 68.7436 148.933 70.4187 156.777C72.0938 164.621 76.9625 170.229 81.2934 169.302Z" fill="#CCCCCC"/>
<path d="M85.5157 161.979C85.5157 165.145 85.2424 171.534 82.079 171.534C78.9156 171.534 74.0601 165.145 74.0601 161.979C74.0601 160.459 74.6636 159 75.7377 157.925C76.8119 156.85 78.2688 156.246 79.7879 156.246C81.307 156.246 82.7639 156.85 83.838 157.925C84.9122 159 85.5157 160.459 85.5157 161.979Z" fill="#E6E6E6"/>
<path d="M81.0679 164.974C80.8978 165.065 80.6985 165.085 80.5138 165.029C80.3291 164.973 80.174 164.846 80.0826 164.676C80.0698 164.652 80.0671 164.624 80.0752 164.597C80.0832 164.571 80.1012 164.549 80.1254 164.536C80.1496 164.523 80.1779 164.52 80.2042 164.528C80.2305 164.536 80.2526 164.554 80.2658 164.578C80.331 164.7 80.4418 164.79 80.5738 164.83C80.7057 164.87 80.8481 164.856 80.9696 164.79C81.0911 164.725 81.1817 164.614 81.2215 164.482C81.2613 164.35 81.2471 164.208 81.1819 164.086C81.1691 164.062 81.1664 164.033 81.1744 164.007C81.1825 163.981 81.2005 163.959 81.2247 163.946C81.2489 163.933 81.2772 163.93 81.3035 163.938C81.3298 163.945 81.3519 163.963 81.3651 163.987C81.4561 164.158 81.476 164.357 81.4202 164.542C81.3645 164.727 81.2378 164.882 81.0679 164.974Z" fill="white"/>
<path d="M80.3064 163.443C80.7111 163.226 80.9715 162.923 80.888 162.768C80.8045 162.612 80.4086 162.662 80.0039 162.879C79.5992 163.096 79.3388 163.399 79.4223 163.555C79.5058 163.711 79.9017 163.661 80.3064 163.443Z" fill="white"/>
<path d="M76.0044 163.707C76.0591 163.442 76.1715 163.191 76.3335 162.974C76.4955 162.756 76.7032 162.577 76.942 162.449C77.1808 162.321 77.4448 162.246 77.7154 162.232C77.986 162.217 78.2566 162.261 78.508 162.363C78.6345 161.975 78.6434 161.559 78.5337 161.167C78.4241 160.775 78.2006 160.424 77.8917 160.159C77.5828 159.894 77.2023 159.727 76.7983 159.678C76.3943 159.629 75.985 159.702 75.622 159.886C75.2591 160.07 74.9589 160.358 74.7594 160.713C74.5599 161.068 74.47 161.474 74.5012 161.88C74.5323 162.286 74.6831 162.674 74.9344 162.994C75.1857 163.314 75.5262 163.553 75.913 163.68C75.9432 163.69 75.9737 163.699 76.0044 163.707Z" fill="white"/>
<path d="M76.6191 162.96C77.01 162.96 77.3268 162.643 77.3268 162.251C77.3268 161.86 77.01 161.543 76.6191 161.543C76.2282 161.543 75.9114 161.86 75.9114 162.251C75.9114 162.643 76.2282 162.96 76.6191 162.96Z" fill="#3F3D56"/>
<path d="M80.9033 161.158C80.958 160.892 81.0703 160.642 81.2324 160.425C81.3944 160.207 81.6021 160.028 81.8409 159.9C82.0797 159.771 82.3437 159.697 82.6143 159.682C82.8849 159.667 83.1554 159.712 83.4069 159.813C83.5334 159.426 83.5423 159.01 83.4326 158.618C83.3229 158.226 83.0995 157.875 82.7906 157.61C82.4817 157.345 82.1012 157.177 81.6972 157.129C81.2932 157.08 80.8838 157.152 80.5209 157.337C80.158 157.521 79.8578 157.809 79.6583 158.163C79.4588 158.518 79.3689 158.925 79.4 159.331C79.4312 159.737 79.5819 160.125 79.8332 160.445C80.0845 160.765 80.4251 161.004 80.8118 161.13C80.8421 161.14 80.8726 161.15 80.9033 161.158Z" fill="white"/>
<path d="M81.7777 160.371C82.1686 160.371 82.4855 160.054 82.4855 159.663C82.4855 159.271 82.1686 158.954 81.7777 158.954C81.3869 158.954 81.07 159.271 81.07 159.663C81.07 160.054 81.3869 160.371 81.7777 160.371Z" fill="#3F3D56"/>
<path d="M85.3293 159.614L82.9129 162.078L83.1568 162.318L85.5732 159.853L85.3293 159.614Z" fill="white"/>
<path d="M86.0971 160.806L83.1775 162.646L83.3596 162.935L86.2792 161.096L86.0971 160.806Z" fill="white"/>
<path d="M77.7289 164.863L74.3412 165.515L74.4058 165.851L77.7935 165.198L77.7289 164.863Z" fill="white"/>
<path d="M78.0552 165.397L74.9095 166.815L75.0499 167.127L78.1955 165.709L78.0552 165.397Z" fill="white"/>
<path d="M85.0745 167.546C86.0038 167.546 86.7572 166.792 86.7572 165.862C86.7572 164.931 86.0038 164.177 85.0745 164.177C84.1451 164.177 83.3917 164.931 83.3917 165.862C83.3917 166.792 84.1451 167.546 85.0745 167.546Z" fill="#CCCCCC"/>
<path d="M80.0637 170.555C80.9931 170.555 81.7465 169.801 81.7465 168.871C81.7465 167.941 80.9931 167.186 80.0637 167.186C79.1344 167.186 78.381 167.941 78.381 168.871C78.381 169.801 79.1344 170.555 80.0637 170.555Z" fill="#CCCCCC"/>
<path d="M79.7879 154.335C79.0242 153.953 78.6105 156.797 78.6105 156.797H80.4103C80.4103 156.797 80.5516 154.717 79.7879 154.335Z" fill="#E6E6E6"/>
<path d="M73.7115 156.925C72.9621 157.335 75.0593 159.298 75.0593 159.298L76.0864 157.819C76.0864 157.819 74.4609 156.516 73.7115 156.925Z" fill="#E6E6E6"/>
</g>
<defs>
<clipPath id="clip0_5_21">
<rect width="407" height="315" fill="white"/>
</clipPath>
</defs>
</svg>
